#!OML:ASF F:\VICON\USERDATA\INSTALL\rory3\rory3.ASF
:FULLY-SPECIFIED
:DEGREES
1534
root -7.37087 17.1821 -2.60136 29.6586 -4.11267 -0.0499909
lowerback 43.4897 1.2513 -1.9813
upperback 11.4274 0.919942 2.65045
thorax -7.73309 0.291228 3.47657
lowerneck -16.846 0.103383 -8.70672
upperneck 26.6777 3.58269 -3.04142
head 11.4751 0.351421 0.87206
rclavicle -1.0138e-014 7.20594e-015
rhumerus -22.9759 28.6435 -79.161
rradius 88.6749
rwrist 28.4844
rhand -31.0899 2.90471
rfingers 7.12502
rthumb -4.36998 -27.0302
lclavicle -1.0138e-014 7.20594e-015
lhumerus -21.6625 -34.3628 83.2756
lradius 75.786
lwrist -13.2103
lhand -38.5041 16.3237
lfingers 7.12502
lthumb -11.5254 45.9868
rfemur -54.6291 -2.28373 5.3332
rtibia 22.5061
rfoot -10.7981 -22.2625
rtoes 25.3731
lfemur -56.8763 6.11745 -18.7979
ltibia 40.4749
lfoot -10.0516 -6.10022
ltoes -14.696
1535
root -7.30652 17.1597 -2.62611 29.3054 -4.04132 -0.202711
lowerback 41.8676 1.25892 -2.04976
upperback 11.7815 0.916271 2.59882
thorax -6.87497 0.28113 3.46264
lowerneck -16.9972 0.114199 -8.73722
upperneck 26.2157 3.57512 -2.96881
head 11.3245 0.373177 0.901783
rclavicle -1.78906e-015 2.18663e-015
rhumerus -22.3575 28.5513 -79.1318
rradius 87.4669
rwrist 28.4065
rhand -30.7122 3.0852
rfingers 7.12502
rthumb -4.00526 -26.8569
lclavicle -1.78906e-015 2.18663e-015
lhumerus -20.6168 -34.2062 82.8407
lradius 74.7369
lwrist -13.4257
lhand -37.5723 15.4271
lfingers 7.12502
lthumb -10.6268 45.1384
rfemur -54.4197 -2.26239 5.29506
rtibia 22.6727
rfoot -10.8751 -22.3073
rtoes 24.9482
lfemur -56.9433 6.11048 -18.8652
ltibia 41.0756
lfoot -10.2389 -6.15517
ltoes -14.4387
1536
root -7.23989 17.1416 -2.65147 28.9692 -3.8837 -0.30426
lowerback 40.7578 1.05425 -1.86215
upperback 11.6527 0.737683 2.3248
thorax -6.66772 0.215195 3.14795
lowerneck -16.8816 0.241446 -8.60486
upperneck 26.0783 3.63043 -2.7589
head 11.2391 0.443668 0.962842
rclavicle 6.26172e-015 2.92959e-014
rhumerus -22.3764 28.5702 -79.7333
rradius 86.1727
rwrist 28.3543
rhand -30.2492 3.13219
rfingers 7.12502
rthumb -3.55815 -26.8179
lclavicle 6.26172e-015 2.92959e-014
lhumerus -20.6118 -34.332 82.7149
lradius 73.9723
lwrist -12.6005
lhand -37.2925 15.2951
lfingers 7.12502
lthumb -10.3568 45.0201
rfemur -54.2351 -2.49927 5.40087
rtibia 22.9068
rfoot -10.5923 -22.2329
rtoes 24.1865
lfemur -57.0366 6.07129 -19.0145
ltibia 41.6421
lfoot -10.3691 -6.30754
ltoes -14.0589
1537
root -7.17398 17.1267 -2.67622 28.6311 -3.7328 -0.426216
lowerback 39.7901 0.978884 -1.83957
upperback 11.3703 0.669218 2.2475
thorax -6.67804 0.195112 3.08423
lowerneck -16.639 0.377862 -8.46923
upperneck 26.1642 3.78533 -2.85659
head 11.2231 0.512885 0.925038
rclavicle 4.27387e-015 -2.29348e-014
rhumerus -22.6286 28.6791 -80.1586
rradius 84.9731
rwrist 28.1851
rhand -29.8912 3.03817
rfingers 7.12502
rthumb -3.21235 -26.9174
lclavicle 4.27387e-015 -2.29348e-014
lhumerus -21.1656 -34.5398 83.1043
lradius 73.4509
lwrist -11.7475
lhand -37.1871 14.5271
lfingers 7.12502
lthumb -10.2551 44.2571
rfemur -54.0429 -2.63443 5.45322
rtibia 23.1907
rfoot -10.469 -22.1206
rtoes 23.6271
lfemur -57.0936 5.97584 -19.0862
ltibia 42.1734
lfoot -10.4476 -6.41779
ltoes -13.656
1538
root -7.1099 17.1053 -2.69862 28.2724 -3.69125 -0.572638
lowerback 38.8941 1.0119 -2.00198
upperback 11.0537 0.671929 2.27748
thorax -6.74734 0.202922 3.20346
lowerneck -16.3083 0.525554 -8.44344
upperneck 26.1722 3.99068 -3.02052
head 11.161 0.591164 0.88683
rclavicle -1.39149e-015 1.80397e-014
rhumerus -23.0198 28.8968 -80.4726
rradius 83.9273
rwrist 27.9679
rhand -29.5214 2.93932
rfingers 7.12502
rthumb -2.85525 -27.0213
lclavicle -1.39149e-015 1.80397e-014
lhumerus -21.6987 -34.5501 83.6496
lradius 72.6924
lwrist -11.4365
lhand -37.1904 13.1593
lfingers 7.12502
lthumb -10.2583 42.8892
rfemur -53.8714 -2.73459 5.53843
rtibia 23.4922
rfoot -10.3158 -21.8649
rtoes 22.6855
lfemur -57.0957 5.89672 -19.0975
ltibia 42.6906
lfoot -10.5364 -6.47689
ltoes -13.187
1539
root -7.04896 17.084 -2.71894 27.9249 -3.58608 -0.717624
lowerback 37.7348 1.01219 -2.07421
upperback 11.0184 0.66997 2.30303
thorax -6.40835 0.20113 3.27338
lowerneck -16.2677 0.613239 -8.4162
upperneck 25.9102 4.14066 -3.22364
head 11.0575 0.649147 0.827664
rclavicle -3.32964e-015 9.0447e-015
rhumerus -22.8307 28.9806 -80.5493
rradius 82.657
rwrist 27.7913
rhand -29.5467 3.07207
rfingers 7.12502
rthumb -2.87964 -26.8882
lclavicle -3.32964e-015 9.0447e-015
lhumerus -21.5559 -34.667 83.878
lradius 71.8318
lwrist -10.8885
lhand -37.7857 12.6978
lfingers 7.12502
lthumb -10.8325 42.3984
rfemur -53.719 -2.88621 5.66274
rtibia 23.825
rfoot -10.3179 -21.7053
rtoes 21.4351
lfemur -57.1095 5.87621 -19.16
ltibia 43.2007
lfoot -10.553 -6.59919
ltoes -12.7598
1540
root -6.98813 17.0654 -2.73737 27.5905 -3.4277 -0.802578
lowerback 36.5682 0.96838 -2.02719
upperback 10.9946 0.648472 2.23714
thorax -6.03717 0.193796 3.19131
lowerneck -16.3512 0.676174 -8.11551
upperneck 25.7194 4.23904 -3.5688
head 11.0154 0.687924 0.666796
rclavicle -4.77083e-015 2.08724e-015
rhumerus -22.5558 28.8526 -80.698
rradius 81.3095
rwrist 27.5551
rhand -29.7347 3.30247
rfingers 7.12502
rthumb -3.06122 -26.6553
lclavicle -4.77083e-015 2.08724e-015
lhumerus -21.2251 -34.9046 83.858
lradius 70.9495
lwrist -10.3512
lhand -37.8712 12.0181
lfingers 7.12502
lthumb -10.915 41.7144
rfemur -53.5671 -3.10795 5.7443
rtibia 24.2223
rfoot -10.4753 -21.5251
rtoes 20.3777
lfemur -57.124 5.79657 -19.279
ltibia 43.706
lfoot -10.6079 -6.6858
ltoes -12.5333
1541
root -6.9278 17.0458 -2.7573 27.2376 -3.37843 -0.870004
lowerback 35.5256 0.947577 -2.16511
upperback 10.9309 0.594677 2.19167
thorax -5.87291 0.172158 3.23634
lowerneck -16.4815 0.751182 -8.21331
upperneck 25.7174 4.37947 -3.53967
head 11.035 0.742272 0.713849
rclavicle 3.8763e-015 -2.22887e-014
rhumerus -22.468 28.9928 -80.8957
rradius 80.0841
rwrist 27.1991
rhand -29.7382 3.48244
rfingers 7.12502
rthumb -3.0646 -26.4753
lclavicle 3.8763e-015 -2.22887e-014
lhumerus -21.0845 -34.7218 83.9899
lradius 70.0013
lwrist -10.4419
lhand -36.9294 11.4516
lfingers 7.12502
lthumb -10.0065 41.1937
rfemur -53.441 -3.22008 5.74916
rtibia 24.6569
rfoot -10.5836 -21.3272
rtoes 18.9014
lfemur -57.0965 5.72594 -19.4095
ltibia 44.1711
lfoot -10.8929 -6.68796
ltoes -12.554
1542
root -6.86941 17.0277 -2.7767 26.8875 -3.32749 -0.900248
lowerback 34.5762 0.952381 -2.29978
upperback 10.7972 0.573311 2.1463
thorax -5.6813 0.164497 3.27177
lowerneck -16.8004 0.775287 -8.36477
upperneck 25.9228 4.47729 -3.41629
head 11.167 0.770463 0.800947
rclavicle -1.26725e-015 -2.08848e-014
rhumerus -22.3614 29.0704 -81.0514
rradius 78.8844
rwrist 26.6973
rhand -29.6968 3.63726
rfingers 7.12502
rthumb -3.02461 -26.321
lclavicle -1.26725e-015 -2.08848e-014
lhumerus -20.9466 -34.6531 84.1484
lradius 69.1357
lwrist -10.5981
lhand -35.9324 11.3115
lfingers 7.12502
lthumb -9.04461 41.0976
rfemur -53.3414 -3.42367 5.78559
rtibia 25.1358
rfoot -10.742 -21.1097
rtoes 17.4735
lfemur -57.0423 5.69511 -19.6113
ltibia 44.5969
lfoot -11.1826 -6.74585
ltoes -12.7354
1543
root -6.81218 17.014 -2.79592 26.5538 -3.18875 -0.933721
lowerback 33.5602 0.91475 -2.32786
upperback 10.691 0.53681 2.09405
thorax -5.42455 0.15004 3.24899
lowerneck -17.1677 0.804103 -8.23542
upperneck 26.2092 4.61809 -3.6595
head 11.3581 0.794624 0.715769
rclavicle -2.44754e-015 1.27843e-014
rhumerus -22.1754 29.0685 -81.2129
rradius 77.6827
rwrist 26.1528
rhand -29.4192 3.5712
rfingers 7.12502
rthumb -2.75659 -26.3907
lclavicle -2.44754e-015 1.27843e-014
lhumerus -20.7904 -34.7906 84.2494
lradius 68.3074
lwrist -10.2502
lhand -35.2682 11.2781
lfingers 7.12502
lthumb -8.4036 41.0909
rfemur -53.2363 -3.65245 5.83018
rtibia 25.643
rfoot -11.1798 -20.9665
rtoes 16.7353
lfemur -56.997 5.59795 -19.7623
ltibia 44.9853
lfoot -11.2866 -6.85058
ltoes -12.4426
